<?xml version="1.0" encoding="UTF-8"?>
<svg id="Layer_2" data-name="Layer 2" xmlns="http://www.w3.org/2000/svg" viewBox="0 0 115.88 155.67">
  <defs>
    <style>
      .cls-1 {
        fill: #000;
        stroke-width: 0px;
      }
    </style>
  </defs>
  <g id="Layer_1-2" data-name="Layer 1">
    <g>
      <path class="cls-1" d="M57.94,0C26,0,0,26,0,57.94v39.79c0,31.94,26,57.94,57.94,57.94s57.94-26,57.94-57.94v-39.79C115.88,26,89.9,0,57.94,0ZM101.61,97.73c0,24.07-19.57,43.67-43.67,43.67S14.27,121.8,14.27,97.73v-39.79c0-24.07,19.6-43.67,43.67-43.67s43.67,19.6,43.67,43.67v39.79Z"/>
      <path class="cls-1" d="M72.49,57.84c0,8.04-6.52,14.56-14.56,14.56s-14.53-6.52-14.53-14.56,6.52-14.53,14.53-14.53,14.56,6.52,14.56,14.53Z"/>
    </g>
  </g>
</svg>