<?xml version="1.0" encoding="UTF-8"?>
<svg id="Layer_2" data-name="Layer 2" xmlns="http://www.w3.org/2000/svg" viewBox="0 0 153.35 59.31">
  <defs>
    <style>
      .cls-1 {
        fill: #000;
        stroke-width: 0px;
      }
    </style>
  </defs>
  <g id="Layer_1-2" data-name="Layer 1">
    <path class="cls-1" d="M149.41,14.38c-2.6-4.45-6.22-7.96-10.8-10.5-4.56-2.54-9.88-3.79-15.88-3.79s-10.89,1.19-15.39,3.59V0h-16.76l-12.22,18.05c-.78,1.15-2.48,1.15-3.26,0L62.91,0h-16.78v3.66C41.63,1.23,36.45.02,30.6.02s-11.25,1.28-15.83,3.81c-4.59,2.54-8.2,6.04-10.83,10.5S0,23.92,0,29.72s1.32,10.83,3.95,15.28c2.62,4.45,6.24,7.96,10.87,10.5,4.61,2.56,9.92,3.81,15.94,3.81s10.89-1.17,15.37-3.57c.15-.07.31-.15.46-.24,4.59-2.54,8.18-6.04,10.78-10.5,2.6-4.45,3.9-9.55,3.9-15.28v-6.31l13.92,20.08c.78,1.13,2.46,1.13,3.24,0l13.78-20.07v6.31c0,5.71,1.3,10.8,3.92,15.26,2.62,4.45,6.24,7.94,10.85,10.47.11.07.22.13.35.18,4.52,2.43,9.72,3.64,15.57,3.64s11.2-1.28,15.79-3.81c4.59-2.54,8.18-6.02,10.76-10.47,2.6-4.45,3.9-9.55,3.9-15.26s-1.32-10.91-3.95-15.35ZM43.79,37.84c-1.26,2.34-3,4.19-5.25,5.53-2.23,1.35-4.83,2.01-7.78,2.01s-5.56-.66-7.83-2.01c-2.27-1.34-4.06-3.2-5.38-5.53-1.3-2.36-1.96-5.05-1.96-8.11s.64-5.8,1.92-8.16c1.3-2.38,3.06-4.26,5.34-5.58,2.27-1.34,4.85-2.03,7.76-2.03s5.56.68,7.83,2.03c2.27,1.32,4.04,3.2,5.34,5.58,1.28,2.36,1.92,5.09,1.92,8.16s-.64,5.75-1.9,8.11ZM135.91,37.81c-1.26,2.36-3,4.19-5.25,5.53-2.23,1.32-4.83,2.01-7.76,2.01s-5.56-.68-7.83-2.01c-2.27-1.35-4.03-3.18-5.36-5.53-1.3-2.34-1.96-5.05-1.96-8.09s.64-5.78,1.92-8.16c1.28-2.36,3.06-4.23,5.34-5.56,2.25-1.34,4.83-2.01,7.72-2.01s5.56.66,7.83,2.01c2.25,1.32,4.04,3.2,5.31,5.56,1.28,2.38,1.92,5.09,1.92,8.16s-.62,5.75-1.87,8.09Z"/>
  </g>
</svg>