<?xml version="1.0" encoding="UTF-8"?>
<svg id="Layer_2" data-name="Layer 2" xmlns="http://www.w3.org/2000/svg" viewBox="0 0 153.35 53.93">
  <defs>
    <style>
      .cls-1 {
        fill: #000;
        stroke-width: 0px;
      }
    </style>
  </defs>
  <g id="Layer_1-2" data-name="Layer 1">
    <g>
      <g>
        <path class="cls-1" d="M7.35,25.98V6.31H0V0h21.53v6.31h-7.31v19.67h-6.87Z"/>
        <path class="cls-1" d="M34.27,27.08c-1.21,0-2.4-.17-3.56-.5s-2.22-.8-3.17-1.39c-.95-.6-1.74-1.27-2.36-2.02-.62-.75-.99-1.55-1.11-2.39l6.83-1.89c.22.62.61,1.14,1.15,1.58.54.43,1.25.68,2.12.72.69.03,1.31-.16,1.84-.56.53-.4.8-.92.8-1.56,0-.42-.16-.82-.46-1.21-.31-.38-.8-.66-1.47-.84l-3.9-1c-1.34-.35-2.48-.88-3.43-1.6-.95-.72-1.68-1.6-2.19-2.63-.51-1.04-.76-2.2-.76-3.49,0-2.55.85-4.53,2.54-5.96,1.69-1.42,4.08-2.13,7.15-2.13,1.63,0,3.07.21,4.32.63,1.25.42,2.33,1.08,3.23,1.98.9.9,1.65,2.09,2.25,3.55l-6.79,1.97c-.12-.5-.44-.99-.95-1.48-.51-.5-1.19-.74-2.06-.74s-1.49.19-1.95.56-.69.92-.69,1.63c0,.45.19.84.56,1.17.37.33.9.59,1.6.76l3.93,1c1.98.5,3.53,1.47,4.64,2.91,1.11,1.45,1.67,3.1,1.67,4.96,0,1.71-.39,3.16-1.17,4.34-.78,1.19-1.9,2.09-3.36,2.71-1.46.62-3.21.93-5.23.93Z"/>
        <polygon class="cls-1" points="63.32 .22 63.32 9.84 53.74 9.84 53.74 .19 46.88 .19 46.88 26.21 53.74 26.21 53.74 16.15 63.32 16.15 63.32 26.21 70.19 26.21 70.19 .22 63.32 .22"/>
        <path class="cls-1" d="M140.48,6.72c-1.18-2.02-2.82-3.61-4.9-4.76-2.07-1.15-4.48-1.72-7.2-1.72s-4.94.54-6.98,1.63V.2h-7.6l-5.54,8.19c-.35.52-1.12.52-1.48,0L101.25.2h-7.61v1.66c-2.04-1.1-4.39-1.65-7.04-1.65s-5.1.58-7.18,1.73c-2.08,1.15-3.72,2.74-4.91,4.76s-1.79,4.35-1.79,6.98.6,4.91,1.79,6.93c1.19,2.02,2.83,3.61,4.93,4.76,2.09,1.16,4.5,1.73,7.23,1.73s4.94-.53,6.97-1.62c.07-.03.14-.07.21-.11,2.08-1.15,3.71-2.74,4.89-4.76,1.18-2.02,1.77-4.33,1.77-6.93v-2.86l6.31,9.11c.36.51,1.12.51,1.47,0l6.25-9.1v2.86c0,2.59.59,4.9,1.78,6.92,1.19,2.02,2.83,3.6,4.92,4.75.05.03.1.06.16.08,2.05,1.1,4.41,1.65,7.06,1.65s5.08-.58,7.16-1.73c2.08-1.15,3.71-2.73,4.88-4.75,1.18-2.02,1.77-4.33,1.77-6.92s-.6-4.95-1.79-6.96ZM92.58,17.36c-.57,1.06-1.36,1.9-2.38,2.51-1.01.61-2.19.91-3.53.91s-2.52-.3-3.55-.91c-1.03-.61-1.84-1.45-2.44-2.51-.59-1.07-.89-2.29-.89-3.68s.29-2.63.87-3.7c.59-1.08,1.39-1.93,2.42-2.53,1.03-.61,2.2-.92,3.52-.92s2.52.31,3.55.92c1.03.6,1.83,1.45,2.42,2.53.58,1.07.87,2.31.87,3.7s-.29,2.61-.86,3.68ZM134.36,17.35c-.57,1.07-1.36,1.9-2.38,2.51-1.01.6-2.19.91-3.52.91s-2.52-.31-3.55-.91c-1.03-.61-1.83-1.44-2.43-2.51-.59-1.06-.89-2.29-.89-3.67s.29-2.62.87-3.7c.58-1.07,1.39-1.92,2.42-2.52,1.02-.61,2.19-.91,3.5-.91s2.52.3,3.55.91c1.02.6,1.83,1.45,2.41,2.52.58,1.08.87,2.31.87,3.7s-.28,2.61-.85,3.67Z"/>
      </g>
      <g>
        <path class="cls-1" d="M9.34,53.93c-1.11,0-2.2-.15-3.26-.46s-2.03-.73-2.9-1.27c-.87-.54-1.59-1.16-2.16-1.85-.57-.69-.91-1.42-1.02-2.19l6.25-1.73c.2.57.56,1.05,1.05,1.44.5.4,1.14.62,1.94.66.63.02,1.19-.15,1.68-.51.49-.36.73-.84.73-1.43,0-.38-.14-.75-.42-1.1-.28-.35-.73-.61-1.34-.76l-3.57-.92c-1.22-.32-2.27-.8-3.14-1.46-.87-.66-1.54-1.46-2-2.41-.46-.95-.7-2.02-.7-3.19,0-2.33.78-4.15,2.33-5.45,1.55-1.3,3.73-1.95,6.54-1.95,1.49,0,2.81.19,3.96.58,1.14.38,2.13.99,2.96,1.82.83.83,1.51,1.91,2.06,3.25l-6.22,1.8c-.11-.45-.4-.91-.87-1.36-.46-.45-1.09-.68-1.89-.68s-1.37.17-1.78.51-.63.84-.63,1.49c0,.41.17.76.51,1.07.34.31.83.54,1.46.7l3.6.92c1.81.45,3.23,1.34,4.25,2.67,1.02,1.33,1.53,2.84,1.53,4.54,0,1.56-.36,2.89-1.07,3.97-.71,1.09-1.74,1.91-3.07,2.48-1.34.57-2.93.85-4.79.85Z"/>
        <path class="cls-1" d="M26.67,53.52v-18.01h-6.73v-5.78h19.71v5.78h-6.69v18.01h-6.28Z"/>
        <path class="cls-1" d="M52.05,53.93c-2.11,0-3.92-.39-5.44-1.16-1.52-.77-2.68-1.87-3.48-3.31-.8-1.44-1.21-3.15-1.21-5.15v-14.57h6.28v14.57c0,.79.16,1.47.48,2.04.32.57.76,1,1.34,1.29.58.29,1.27.44,2.09.44s1.52-.15,2.11-.44c.59-.29,1.04-.72,1.34-1.29.31-.57.46-1.24.46-2.04v-14.57h6.28v14.57c0,1.99-.41,3.71-1.22,5.15-.82,1.44-1.99,2.54-3.52,3.31-1.53.77-3.37,1.16-5.52,1.16Z"/>
        <path class="cls-1" d="M66.05,53.52v-23.78h7.95c2.6,0,4.91.51,6.91,1.53,2,1.02,3.57,2.42,4.7,4.2s1.7,3.83,1.7,6.17-.57,4.36-1.7,6.15-2.7,3.19-4.7,4.21-4.31,1.53-6.91,1.53h-7.95ZM72.33,47.58h1.66c1,0,1.91-.15,2.75-.44s1.56-.7,2.17-1.22c.61-.52,1.09-1.14,1.43-1.87.34-.72.51-1.53.51-2.41s-.17-1.69-.51-2.41c-.34-.73-.82-1.35-1.43-1.87-.61-.52-1.34-.93-2.17-1.22s-1.76-.44-2.75-.44h-1.66v11.89Z"/>
        <path class="cls-1" d="M90.2,53.52v-23.78h6.28v23.78h-6.28Z"/>
        <path class="cls-1" d="M112.12,53.93c-2.49,0-4.69-.53-6.61-1.58-1.91-1.05-3.41-2.5-4.5-4.35-1.09-1.85-1.63-3.96-1.63-6.34s.54-4.52,1.63-6.37c1.09-1.85,2.58-3.3,4.48-4.35s4.09-1.58,6.56-1.58,4.69.53,6.59,1.58,3.4,2.5,4.48,4.35c1.09,1.85,1.63,3.97,1.63,6.37s-.54,4.49-1.61,6.34c-1.08,1.85-2.56,3.3-4.47,4.35-1.9,1.05-4.09,1.58-6.56,1.58ZM112.12,48.15c1.22,0,2.3-.28,3.23-.83.93-.55,1.65-1.32,2.17-2.29.52-.97.78-2.09.78-3.36s-.27-2.4-.8-3.38c-.53-.99-1.27-1.76-2.21-2.31-.94-.55-2.02-.83-3.24-.83s-2.27.28-3.21.83c-.94.56-1.68,1.33-2.21,2.31-.53.98-.8,2.11-.8,3.38s.27,2.39.82,3.36c.54.97,1.28,1.74,2.22,2.29.94.56,2.02.83,3.24.83Z"/>
        <path class="cls-1" d="M135.97,53.93c-1.11,0-2.2-.15-3.26-.46s-2.03-.73-2.9-1.27c-.87-.54-1.59-1.16-2.16-1.85-.57-.69-.91-1.42-1.02-2.19l6.25-1.73c.2.57.56,1.05,1.05,1.44.5.4,1.14.62,1.94.66.63.02,1.19-.15,1.68-.51.49-.36.73-.84.73-1.43,0-.38-.14-.75-.42-1.1-.28-.35-.73-.61-1.34-.76l-3.57-.92c-1.22-.32-2.27-.8-3.14-1.46-.87-.66-1.54-1.46-2-2.41-.46-.95-.7-2.02-.7-3.19,0-2.33.78-4.15,2.33-5.45,1.55-1.3,3.73-1.95,6.54-1.95,1.49,0,2.81.19,3.96.58,1.14.38,2.13.99,2.96,1.82.83.83,1.51,1.91,2.06,3.25l-6.22,1.8c-.11-.45-.4-.91-.87-1.36-.46-.45-1.09-.68-1.89-.68s-1.37.17-1.78.51-.63.84-.63,1.49c0,.41.17.76.51,1.07.34.31.83.54,1.46.7l3.6.92c1.81.45,3.23,1.34,4.25,2.67,1.02,1.33,1.53,2.84,1.53,4.54,0,1.56-.36,2.89-1.07,3.97-.71,1.09-1.74,1.91-3.07,2.48-1.34.57-2.93.85-4.79.85Z"/>
      </g>
      <path class="cls-1" d="M148.01,53.19v-2.22h-.84v-.82h2.56v.82h-.83v2.22h-.89ZM151.7,52.64l-.77-1.11v1.67h-.89v-3.03h.99l.67.99.66-.99h.99v3.03h-.89v-1.67l-.77,1.11Z"/>
    </g>
  </g>
</svg>