<?xml version="1.0" encoding="UTF-8"?>
<svg id="Layer_2" data-name="Layer 2" xmlns="http://www.w3.org/2000/svg" viewBox="0 0 153.35 88.09">
  <defs>
    <style>
      .cls-1 {
        fill: #fff;
        stroke-width: 0px;
      }
    </style>
  </defs>
  <g id="Layer_1-2" data-name="Layer 1">
    <g>
      <g>
        <path class="cls-1" d="M13.55,88.09c-1.11,0-2.2-.15-3.26-.46-1.06-.31-2.03-.73-2.9-1.27-.87-.54-1.59-1.16-2.16-1.85-.57-.69-.91-1.42-1.02-2.19l6.25-1.73c.2.57.56,1.05,1.05,1.44.5.4,1.14.62,1.94.66.63.02,1.19-.15,1.68-.51.49-.36.73-.84.73-1.43,0-.38-.14-.75-.42-1.1-.28-.35-.73-.61-1.34-.76l-3.57-.92c-1.22-.32-2.27-.8-3.14-1.46-.87-.66-1.54-1.46-2-2.41-.46-.95-.7-2.02-.7-3.19,0-2.33.78-4.15,2.33-5.45,1.55-1.3,3.73-1.95,6.54-1.95,1.49,0,2.81.19,3.96.58,1.14.38,2.13.99,2.96,1.82.83.83,1.51,1.91,2.06,3.25l-6.22,1.8c-.11-.45-.4-.91-.87-1.36-.46-.45-1.09-.68-1.89-.68s-1.37.17-1.78.51-.63.84-.63,1.49c0,.41.17.76.51,1.07.34.31.83.54,1.46.7l3.6.92c1.81.45,3.23,1.34,4.25,2.67,1.02,1.33,1.53,2.84,1.53,4.54,0,1.56-.36,2.89-1.07,3.97-.71,1.09-1.74,1.91-3.07,2.48-1.34.57-2.93.85-4.79.85Z"/>
        <path class="cls-1" d="M30.88,87.68v-18.01h-6.73v-5.78h19.71v5.78h-6.69v18.01h-6.28Z"/>
        <path class="cls-1" d="M56.26,88.09c-2.11,0-3.92-.39-5.44-1.16-1.52-.77-2.68-1.87-3.48-3.31-.8-1.44-1.21-3.15-1.21-5.15v-14.57h6.28v14.57c0,.79.16,1.47.48,2.04.32.57.76,1,1.34,1.29.58.29,1.27.44,2.09.44s1.52-.15,2.11-.44c.59-.29,1.04-.72,1.34-1.29.31-.57.46-1.24.46-2.04v-14.57h6.28v14.57c0,1.99-.41,3.71-1.22,5.15-.82,1.44-1.99,2.54-3.52,3.31-1.53.77-3.37,1.16-5.52,1.16Z"/>
        <path class="cls-1" d="M70.26,87.68v-23.78h7.95c2.6,0,4.91.51,6.91,1.53,2,1.02,3.57,2.42,4.7,4.2s1.7,3.83,1.7,6.17-.57,4.36-1.7,6.15-2.7,3.19-4.7,4.21c-2,1.02-4.31,1.53-6.91,1.53h-7.95ZM76.54,81.73h1.66c1,0,1.91-.15,2.75-.44s1.56-.7,2.17-1.22c.61-.52,1.09-1.14,1.43-1.87.34-.72.51-1.53.51-2.41s-.17-1.69-.51-2.41c-.34-.73-.82-1.35-1.43-1.87-.61-.52-1.34-.93-2.17-1.22s-1.76-.44-2.75-.44h-1.66v11.89Z"/>
        <path class="cls-1" d="M94.41,87.68v-23.78h6.28v23.78h-6.28Z"/>
        <path class="cls-1" d="M116.32,88.09c-2.49,0-4.69-.53-6.61-1.58-1.91-1.05-3.41-2.5-4.5-4.35-1.09-1.85-1.63-3.96-1.63-6.34s.54-4.52,1.63-6.37c1.09-1.85,2.58-3.3,4.48-4.35s4.09-1.58,6.56-1.58,4.69.53,6.59,1.58,3.4,2.5,4.48,4.35c1.09,1.85,1.63,3.97,1.63,6.37s-.54,4.49-1.61,6.34c-1.08,1.85-2.56,3.3-4.47,4.35-1.9,1.05-4.09,1.58-6.56,1.58ZM116.32,82.31c1.22,0,2.3-.28,3.23-.83.93-.55,1.65-1.32,2.17-2.29.52-.97.78-2.09.78-3.36s-.27-2.4-.8-3.38c-.53-.99-1.27-1.76-2.21-2.31-.94-.55-2.02-.83-3.24-.83s-2.27.28-3.21.83c-.94.56-1.68,1.33-2.21,2.31-.53.98-.8,2.11-.8,3.38s.27,2.39.82,3.36c.54.97,1.28,1.74,2.22,2.29.94.56,2.02.83,3.24.83Z"/>
        <path class="cls-1" d="M140.17,88.09c-1.11,0-2.2-.15-3.26-.46-1.06-.31-2.03-.73-2.9-1.27-.87-.54-1.59-1.16-2.16-1.85-.57-.69-.91-1.42-1.02-2.19l6.25-1.73c.2.57.56,1.05,1.05,1.44.5.4,1.14.62,1.94.66.63.02,1.19-.15,1.68-.51.49-.36.73-.84.73-1.43,0-.38-.14-.75-.42-1.1-.28-.35-.73-.61-1.34-.76l-3.57-.92c-1.22-.32-2.27-.8-3.14-1.46-.87-.66-1.54-1.46-2-2.41-.46-.95-.7-2.02-.7-3.19,0-2.33.78-4.15,2.33-5.45,1.55-1.3,3.73-1.95,6.54-1.95,1.49,0,2.81.19,3.96.58,1.14.38,2.13.99,2.96,1.82.83.83,1.51,1.91,2.06,3.25l-6.22,1.8c-.11-.45-.4-.91-.87-1.36-.46-.45-1.09-.68-1.89-.68s-1.37.17-1.78.51-.63.84-.63,1.49c0,.41.17.76.51,1.07.34.31.83.54,1.46.7l3.6.92c1.81.45,3.23,1.34,4.25,2.67,1.02,1.33,1.53,2.84,1.53,4.54,0,1.56-.36,2.89-1.07,3.97-.71,1.09-1.74,1.91-3.07,2.48-1.34.57-2.93.85-4.79.85Z"/>
      </g>
      <path class="cls-1" d="M74.42,87.35v-2.22h-.84v-.82h2.56v.82h-.83v2.22h-.89ZM78.11,86.79l-.77-1.11v1.67h-.89v-3.03h.99l.67.99.66-.99h.99v3.03h-.89v-1.67l-.77,1.11Z"/>
      <path class="cls-1" d="M149.41,14.38c-2.6-4.45-6.22-7.96-10.8-10.5-4.56-2.54-9.88-3.79-15.88-3.79s-10.89,1.19-15.39,3.59V0h-16.76l-12.22,18.05c-.78,1.15-2.48,1.15-3.26,0L62.91,0h-16.78v3.66C41.63,1.23,36.45.02,30.6.02s-11.25,1.28-15.83,3.81c-4.59,2.54-8.2,6.04-10.83,10.5C1.32,18.79,0,23.92,0,29.72s1.32,10.83,3.95,15.28c2.62,4.45,6.24,7.96,10.87,10.5,4.61,2.56,9.92,3.81,15.94,3.81s10.89-1.17,15.37-3.57c.15-.07.31-.15.46-.24,4.59-2.54,8.18-6.04,10.78-10.5,2.6-4.45,3.9-9.55,3.9-15.28v-6.31l13.92,20.08c.78,1.13,2.46,1.13,3.24,0l13.78-20.07v6.31c0,5.71,1.3,10.8,3.92,15.26,2.62,4.45,6.24,7.94,10.85,10.47.11.07.22.13.35.18,4.52,2.43,9.72,3.64,15.57,3.64s11.2-1.28,15.79-3.81c4.59-2.54,8.18-6.02,10.76-10.47,2.6-4.45,3.9-9.55,3.9-15.26s-1.32-10.91-3.95-15.35ZM43.79,37.84c-1.26,2.34-3,4.19-5.25,5.53-2.23,1.35-4.83,2.01-7.78,2.01s-5.56-.66-7.83-2.01c-2.27-1.34-4.06-3.2-5.38-5.53-1.3-2.36-1.96-5.05-1.96-8.11s.64-5.8,1.92-8.16c1.3-2.38,3.06-4.26,5.34-5.58,2.27-1.34,4.85-2.03,7.76-2.03s5.56.68,7.83,2.03c2.27,1.32,4.04,3.2,5.34,5.58,1.28,2.36,1.92,5.09,1.92,8.16s-.64,5.75-1.9,8.11ZM135.91,37.81c-1.26,2.36-3,4.19-5.25,5.53-2.23,1.32-4.83,2.01-7.76,2.01s-5.56-.68-7.83-2.01c-2.27-1.35-4.03-3.18-5.36-5.53-1.3-2.34-1.96-5.05-1.96-8.09s.64-5.78,1.92-8.16c1.28-2.36,3.06-4.23,5.34-5.56,2.25-1.34,4.83-2.01,7.72-2.01s5.56.66,7.83,2.01c2.25,1.32,4.04,3.2,5.31,5.56,1.28,2.38,1.92,5.09,1.92,8.16s-.62,5.75-1.87,8.09Z"/>
    </g>
  </g>
</svg>